# xmcd CD database file
#
# Track frame offsets:
#	150
#	19841
#	31799
#	47497
#	70927
#	84675
#	106401
#	117033
#	129353
#	150152
#	162261
#	192660
#	205935
#	223282
#	233735
#
# Disc length: 3367 seconds
#
# Revision: 0
# Processed by: cddbd v1.5PL3 Copyright (c) Steve Scherf et al.
# Submitted via: CDex 1.51
#
DISCID=c50d250f
DTITLE=Richard P Boals and the Soals - Mystic City Mantras
DYEAR=1997
DGENRE=Blues
TTITLE0=Cat in the Street
TTITLE1=Ain't No Way
TTITLE2=Mystic City Blues
TTITLE3=Sunrise in East Chicago
TTITLE4=The Broadway Shuffle
TTITLE5=City Soul
TTITLE6=Rock This House
TTITLE7=Bed Full of Blues
TTITLE8=In The Heat Of The Night
TTITLE9=He Used To Be Like You
TTITLE10=That's How Much I Love You
TTITLE11=Hey Hey Hey
TTITLE12=10th Street Victory Mission
TTITLE13=Ride That Train
TTITLE14=Anywhere You Go Is Chicago
EXTD=YEAR: 1997
EXTT0=
EXTT1=
EXTT2=
EXTT3=
EXTT4=
EXTT5=
EXTT6=
EXTT7=
EXTT8=
EXTT9=
EXTT10=
EXTT11=
EXTT12=
EXTT13=
EXTT14=
PLAYORDER=
